<mxfile host="app.diagrams.net" modified="2023-10-11T01:52:46.156Z" agent="Mozilla/5.0 (Macintosh; Intel Mac OS X 10.15; rv:109.0) Gecko/20100101 Firefox/118.0" version="22.0.0" etag="z6We8bBikLI4N0f7ic6n" type="github">
  <diagram name="Page-1" id="s_K_Jd9jlDhBgt5PAwLs">
    <mxGraphModel>
      <root>
        <mxCell id="0" />
        <mxCell id="1" parent="0" />
      </root>
    </mxGraphModel>
  </diagram>
</mxfile>
